<svg xmlns="http://www.w3.org/2000/svg" xmlns:xlink="http://www.w3.org/1999/xlink" version="1.1" width="1000" height="1000" viewBox="0 0 1000 1000" xml:space="preserve">
<desc>Created with Fabric.js 3.5.0</desc>
<defs>
</defs>
<rect x="0" y="0" width="100%" height="100%" fill="none" />
<g transform="matrix(30.7514 0 0 30.7514 308.014 500.0001)" id="122439">
<path style="stroke: none; stroke-width: 1; stroke-dasharray: none; stroke-linecap: butt; stroke-dashoffset: 0; stroke-linejoin: miter; stroke-miterlimit: 4; is-custom-font: none; font-file-url: none; fill: rgb(255,85,85); fill-rule: nonzero; opacity: 1;" vector-effect="non-scaling-stroke" transform=" translate(-12, -12)" d="M 20 12 A 8 8 0 0 1 12 20 A 8 8 0 0 1 4 12 A 8 8 0 0 1 12 4 C 12.76 4 13.5 4.11 14.2 4.31 L 15.77 2.74 C 14.61 2.26 13.34 2 12 2 A 10 10 0 0 0 2 12 A 10 10 0 0 0 12 22 A 10 10 0 0 0 22 12 M 7.91 10.08 L 6.5 11.5 L 11 16 L 21 6 L 19.59 4.58 L 11 13.17 L 7.91 10.08 Z" stroke-linecap="round"/>
</g>
<g transform="matrix(30.7514 0 0 30.7514 500 500)" id="421566">
<path style="stroke: none; stroke-width: 1; stroke-dasharray: none; stroke-linecap: butt; stroke-dashoffset: 0; stroke-linejoin: miter; stroke-miterlimit: 4; is-custom-font: none; font-file-url: none; fill: rgb(255,184,108); fill-rule: nonzero; opacity: 1;" vector-effect="non-scaling-stroke" transform=" translate(-12, -12)" d="M 20 12 A 8 8 0 0 1 12 20 A 8 8 0 0 1 4 12 A 8 8 0 0 1 12 4 C 12.76 4 13.5 4.11 14.2 4.31 L 15.77 2.74 C 14.61 2.26 13.34 2 12 2 A 10 10 0 0 0 2 12 A 10 10 0 0 0 12 22 A 10 10 0 0 0 22 12 M 7.91 10.08 L 6.5 11.5 L 11 16 L 21 6 L 19.59 4.58 L 11 13.17 L 7.91 10.08 Z" stroke-linecap="round"/>
</g>
<g transform="matrix(30.7514 0 0 30.7514 693.2606 500)" id="257970">
<path style="stroke: none; stroke-width: 1; stroke-dasharray: none; stroke-linecap: butt; stroke-dashoffset: 0; stroke-linejoin: miter; stroke-miterlimit: 4; is-custom-font: none; font-file-url: none; fill: rgb(80,250,123); fill-rule: nonzero; opacity: 1;" vector-effect="non-scaling-stroke" transform=" translate(-12, -12)" d="M 20 12 A 8 8 0 0 1 12 20 A 8 8 0 0 1 4 12 A 8 8 0 0 1 12 4 C 12.76 4 13.5 4.11 14.2 4.31 L 15.77 2.74 C 14.61 2.26 13.34 2 12 2 A 10 10 0 0 0 2 12 A 10 10 0 0 0 12 22 A 10 10 0 0 0 22 12 M 7.91 10.08 L 6.5 11.5 L 11 16 L 21 6 L 19.59 4.58 L 11 13.17 L 7.91 10.08 Z" stroke-linecap="round"/>
</g>
</svg>